<svg id="visual" viewBox="0 0 1024 302" width="1024" height="302" xmlns="http://www.w3.org/2000/svg" xmlns:xlink="http://www.w3.org/1999/xlink" version="1.1"><rect x="0" y="0" width="1024" height="302" fill="#140021"></rect><path d="M752 302L709 302L709 275L697 275L697 247L739 247L739 220L781 220L781 192L772 192L772 165L760 165L760 137L758 137L758 110L780 110L780 82L758 82L758 55L743 55L743 27L706 27L706 0L1024 0L1024 27L1024 27L1024 55L1024 55L1024 82L1024 82L1024 110L1024 110L1024 137L1024 137L1024 165L1024 165L1024 192L1024 192L1024 220L1024 220L1024 247L1024 247L1024 275L1024 275L1024 302L1024 302Z" fill="#9900ff"></path><path d="M800 302L842 302L842 275L805 275L805 247L832 247L832 220L821 220L821 192L768 192L768 165L834 165L834 137L784 137L784 110L824 110L824 82L814 82L814 55L833 55L833 27L807 27L807 0L1024 0L1024 27L1024 27L1024 55L1024 55L1024 82L1024 82L1024 110L1024 110L1024 137L1024 137L1024 165L1024 165L1024 192L1024 192L1024 220L1024 220L1024 247L1024 247L1024 275L1024 275L1024 302L1024 302Z" fill="#8200d9"></path><path d="M849 302L884 302L884 275L894 275L894 247L865 247L865 220L854 220L854 192L900 192L900 165L869 165L869 137L871 137L871 110L847 110L847 82L910 82L910 55L892 55L892 27L861 27L861 0L1024 0L1024 27L1024 27L1024 55L1024 55L1024 82L1024 82L1024 110L1024 110L1024 137L1024 137L1024 165L1024 165L1024 192L1024 192L1024 220L1024 220L1024 247L1024 247L1024 275L1024 275L1024 302L1024 302Z" fill="#6c00b4"></path><path d="M916 302L950 302L950 275L939 275L939 247L912 247L912 220L975 220L975 192L973 192L973 165L925 165L925 137L975 137L975 110L941 110L941 82L924 82L924 55L974 55L974 27L973 27L973 0L1024 0L1024 27L1024 27L1024 55L1024 55L1024 82L1024 82L1024 110L1024 110L1024 137L1024 137L1024 165L1024 165L1024 192L1024 192L1024 220L1024 220L1024 247L1024 247L1024 275L1024 275L1024 302L1024 302Z" fill="#560090"></path></svg>